<mxfile host="app.diagrams.net" modified="2024-04-25T04:39:48.733Z" agent="Mozilla/5.0 (X11; Linux x86_64) AppleWebKit/537.36 (KHTML, like Gecko) Chrome/124.0.0.0 Safari/537.36" etag="G30yuOnAhif_EG9oA2UN" version="24.2.3" type="device">
  <diagram name="Página-1" id="mBLadTK96hF4ARNNZyFz">
    <mxGraphModel dx="1049" dy="514" grid="1" gridSize="10" guides="1" tooltips="1" connect="1" arrows="1" fold="1" page="1" pageScale="1" pageWidth="827" pageHeight="1169" math="0" shadow="0">
      <root>
        <mxCell id="0" />
        <mxCell id="1" parent="0" />
        <mxCell id="-Rwm97LauqN7AZzvsjxV-3" value="" style="shape=folder;fontStyle=1;spacingTop=10;tabWidth=160;tabHeight=20;tabPosition=left;html=1;whiteSpace=wrap;" vertex="1" parent="1">
          <mxGeometry x="30" y="10" width="510" height="120" as="geometry" />
        </mxCell>
        <mxCell id="-Rwm97LauqN7AZzvsjxV-4" value="&lt;p style=&quot;line-height: 1px; margin-bottom: 0cm; background: transparent; font-size: medium; text-align: start; text-wrap: wrap;&quot;&gt;Presentación&lt;/p&gt;" style="text;html=1;align=center;verticalAlign=middle;resizable=0;points=[];autosize=1;strokeColor=none;fillColor=none;" vertex="1" parent="1">
          <mxGeometry x="20" width="120" height="30" as="geometry" />
        </mxCell>
        <mxCell id="-Rwm97LauqN7AZzvsjxV-5" value="INTERFAZ DE USUARIO" style="shape=module;align=left;spacingLeft=20;align=center;verticalAlign=top;whiteSpace=wrap;html=1;" vertex="1" parent="1">
          <mxGeometry x="40" y="50" width="180" height="40" as="geometry" />
        </mxCell>
        <mxCell id="-Rwm97LauqN7AZzvsjxV-6" value="INTERFAZ DE ADMINISTRADOR" style="shape=module;align=left;spacingLeft=20;align=center;verticalAlign=top;whiteSpace=wrap;html=1;" vertex="1" parent="1">
          <mxGeometry x="300" y="50" width="180" height="40" as="geometry" />
        </mxCell>
        <mxCell id="-Rwm97LauqN7AZzvsjxV-7" value="" style="endArrow=none;endSize=12;dashed=1;html=1;rounded=0;exitX=0.488;exitY=1.035;exitDx=0;exitDy=0;exitPerimeter=0;endFill=0;" edge="1" parent="1" source="-Rwm97LauqN7AZzvsjxV-3">
          <mxGeometry width="160" relative="1" as="geometry">
            <mxPoint x="120" y="200" as="sourcePoint" />
            <mxPoint x="280" y="200" as="targetPoint" />
          </mxGeometry>
        </mxCell>
        <mxCell id="-Rwm97LauqN7AZzvsjxV-8" value="&lt;span style=&quot;color: rgba(0, 0, 0, 0); font-family: monospace; font-size: 0px; font-weight: 400; text-align: start; text-wrap: nowrap;&quot;&gt;%3CmxGraphModel%3E%3Croot%3E%3CmxCell%20id%3D%220%22%2F%3E%3CmxCell%20id%3D%221%22%20parent%3D%220%22%2F%3E%3CmxCell%20id%3D%222%22%20value%3D%22INTERFAZ%20DE%20USUARIO%22%20style%3D%22shape%3Dmodule%3Balign%3Dleft%3BspacingLeft%3D20%3Balign%3Dcenter%3BverticalAlign%3Dtop%3BwhiteSpace%3Dwrap%3Bhtml%3D1%3B%22%20vertex%3D%221%22%20parent%3D%221%22%3E%3CmxGeometry%20x%3D%2240%22%20y%3D%2250%22%20width%3D%22180%22%20height%3D%2240%22%20as%3D%22geometry%22%2F%3E%3C%2FmxCell%3E%3C%2Froot%3E%3C%2FmxGraphModel%3E&lt;/span&gt;" style="shape=folder;fontStyle=1;spacingTop=10;tabWidth=160;tabHeight=20;tabPosition=left;html=1;whiteSpace=wrap;" vertex="1" parent="1">
          <mxGeometry x="30" y="170" width="610" height="160" as="geometry" />
        </mxCell>
        <mxCell id="-Rwm97LauqN7AZzvsjxV-9" value="&lt;p style=&quot;line-height: 100%; margin-bottom: 0cm&quot;&gt;&#xa;LÓGICA DE NEGOCIO &#xa;&lt;/p&gt;&#xa;&#xa;" style="text;html=1;align=center;verticalAlign=middle;resizable=0;points=[];autosize=1;strokeColor=none;fillColor=none;" vertex="1" parent="1">
          <mxGeometry x="30" y="140" width="150" height="80" as="geometry" />
        </mxCell>
        <mxCell id="-Rwm97LauqN7AZzvsjxV-10" value="CREACION DE LIBROS" style="shape=module;align=left;spacingLeft=20;align=center;verticalAlign=top;whiteSpace=wrap;html=1;" vertex="1" parent="1">
          <mxGeometry x="40" y="210" width="180" height="40" as="geometry" />
        </mxCell>
        <mxCell id="-Rwm97LauqN7AZzvsjxV-11" value="ADIMISTRACION DE LIBROS" style="shape=module;align=left;spacingLeft=20;align=center;verticalAlign=top;whiteSpace=wrap;html=1;" vertex="1" parent="1">
          <mxGeometry x="245" y="210" width="180" height="40" as="geometry" />
        </mxCell>
        <mxCell id="-Rwm97LauqN7AZzvsjxV-12" value="GESTION DE USUARIOS" style="shape=module;align=left;spacingLeft=20;align=center;verticalAlign=top;whiteSpace=wrap;html=1;" vertex="1" parent="1">
          <mxGeometry x="440" y="210" width="180" height="40" as="geometry" />
        </mxCell>
        <mxCell id="-Rwm97LauqN7AZzvsjxV-13" value="GESTION DE SOLOCITUDES" style="shape=module;align=left;spacingLeft=20;align=center;verticalAlign=top;whiteSpace=wrap;html=1;" vertex="1" parent="1">
          <mxGeometry x="40" y="265" width="180" height="40" as="geometry" />
        </mxCell>
        <mxCell id="-Rwm97LauqN7AZzvsjxV-14" value="CREACION DE PRESTAMOS" style="shape=module;align=left;spacingLeft=20;align=center;verticalAlign=top;whiteSpace=wrap;html=1;" vertex="1" parent="1">
          <mxGeometry x="245" y="265" width="180" height="40" as="geometry" />
        </mxCell>
        <mxCell id="-Rwm97LauqN7AZzvsjxV-15" value="GESTION DE PRESTAMOS" style="shape=module;align=left;spacingLeft=20;align=center;verticalAlign=top;whiteSpace=wrap;html=1;" vertex="1" parent="1">
          <mxGeometry x="440" y="265" width="180" height="40" as="geometry" />
        </mxCell>
        <mxCell id="-Rwm97LauqN7AZzvsjxV-16" value="&lt;span style=&quot;color: rgba(0, 0, 0, 0); font-family: monospace; font-size: 0px; font-weight: 400; text-align: start; text-wrap: nowrap;&quot;&gt;%3CmxGraphModel%3E%3Croot%3E%3CmxCell%20id%3D%220%22%2F%3E%3CmxCell%20id%3D%221%22%20parent%3D%220%22%2F%3E%3CmxCell%20id%3D%222%22%20value%3D%22INTERFAZ%20DE%20USUARIO%22%20style%3D%22shape%3Dmodule%3Balign%3Dleft%3BspacingLeft%3D20%3Balign%3Dcenter%3BverticalAlign%3Dtop%3BwhiteSpace%3Dwrap%3Bhtml%3D1%3B%22%20vertex%3D%221%22%20parent%3D%221%22%3E%3CmxGeometry%20x%3D%2240%22%20y%3D%2250%22%20width%3D%22180%22%20height%3D%2240%22%20as%3D%22geometry%22%2F%3E%3C%2FmxCell%3E%3C%2Froot%3E%3C%2FmxGraphModel%3E&lt;/span&gt;" style="shape=folder;fontStyle=1;spacingTop=10;tabWidth=160;tabHeight=20;tabPosition=left;html=1;whiteSpace=wrap;" vertex="1" parent="1">
          <mxGeometry x="90" y="374" width="390" height="210" as="geometry" />
        </mxCell>
        <mxCell id="-Rwm97LauqN7AZzvsjxV-18" value="" style="endArrow=none;endSize=12;dashed=1;html=1;rounded=0;exitX=0.488;exitY=1.035;exitDx=0;exitDy=0;exitPerimeter=0;endFill=0;" edge="1" parent="1">
          <mxGeometry width="160" relative="1" as="geometry">
            <mxPoint x="304.5" y="330" as="sourcePoint" />
            <mxPoint x="305.5" y="396" as="targetPoint" />
          </mxGeometry>
        </mxCell>
        <mxCell id="-Rwm97LauqN7AZzvsjxV-19" value="SERVICIOS" style="text;html=1;align=center;verticalAlign=middle;resizable=0;points=[];autosize=1;strokeColor=none;fillColor=none;" vertex="1" parent="1">
          <mxGeometry x="100" y="370" width="90" height="30" as="geometry" />
        </mxCell>
        <mxCell id="-Rwm97LauqN7AZzvsjxV-20" value="CONSULTA DE LIBROS" style="shape=module;align=left;spacingLeft=20;align=center;verticalAlign=top;whiteSpace=wrap;html=1;" vertex="1" parent="1">
          <mxGeometry x="100" y="410" width="180" height="40" as="geometry" />
        </mxCell>
        <mxCell id="-Rwm97LauqN7AZzvsjxV-21" value="CONSULTA DE USUARIOS CON LIBROS PRESTADOS" style="shape=module;align=left;spacingLeft=20;align=center;verticalAlign=top;whiteSpace=wrap;html=1;" vertex="1" parent="1">
          <mxGeometry x="290" y="410" width="180" height="40" as="geometry" />
        </mxCell>
        <mxCell id="-Rwm97LauqN7AZzvsjxV-22" value="CONSULTA DE PRESTAMOS ACTIVOS Y NO ACTIVOS" style="shape=module;align=left;spacingLeft=20;align=center;verticalAlign=top;whiteSpace=wrap;html=1;" vertex="1" parent="1">
          <mxGeometry x="95" y="470" width="190" height="40" as="geometry" />
        </mxCell>
        <mxCell id="-Rwm97LauqN7AZzvsjxV-23" value="RESPUESTA DE SOLICITUDES" style="shape=module;align=left;spacingLeft=20;align=center;verticalAlign=top;whiteSpace=wrap;html=1;" vertex="1" parent="1">
          <mxGeometry x="290" y="470" width="180" height="40" as="geometry" />
        </mxCell>
      </root>
    </mxGraphModel>
  </diagram>
</mxfile>
